HIERARCHY
ROOT Hips
{
	OFFSET 0.000000 0.000000 0.000000
	CHANNELS 6 Xposition Yposition Zposition Zrotation Yrotation Xrotation 
	JOINT LHipJoint
	{
		OFFSET 0.000000 0.000000 0.000000
		CHANNELS 3 Zrotation Yrotation Xrotation
		JOINT LeftUpLeg
		{
			OFFSET 1.363060 -1.794630 0.839290
			CHANNELS 3 Zrotation Yrotation Xrotation
			JOINT LeftLeg
			{
				OFFSET 2.448110 -6.726130 0.000000
				CHANNELS 3 Zrotation Yrotation Xrotation
				JOINT LeftFoot
				{
					OFFSET 2.562200 -7.039590 0.000000
					CHANNELS 3 Zrotation Yrotation Xrotation
					JOINT LeftToeBase
					{
						OFFSET 0.157640 -0.433110 2.322550
						CHANNELS 3 Zrotation Yrotation Xrotation
						End Site
						{
							OFFSET 0.000000 0.000000 0.000000
						}
					}
				}
			}
		}
	}
	JOINT RHipJoint
	{
		OFFSET 0.000000 0.000000 0.000000
		CHANNELS 3 Zrotation Yrotation Xrotation
		JOINT RightUpLeg
		{
			OFFSET -1.305520 -1.794630 0.839290
			CHANNELS 3 Zrotation Yrotation Xrotation
			JOINT RightLeg
			{
				OFFSET -2.542530 -6.985550 0.000000
				CHANNELS 3 Zrotation Yrotation Xrotation
				JOINT RightFoot
				{
					OFFSET -2.568260 -7.056230 0.000000
					CHANNELS 3 Zrotation Yrotation Xrotation
					JOINT RightToeBase
					{
						OFFSET -0.164730 -0.452590 2.363150
						CHANNELS 3 Zrotation Yrotation Xrotation
						End Site
						{
							OFFSET 0.000000 0.000000 0.000000
						}
					}
				}
			}
		}
	}
	JOINT LowerBack
	{
		OFFSET 0.000000 0.000000 0.000000
		CHANNELS 3 Zrotation Yrotation Xrotation
		JOINT Spine
		{
			OFFSET 0.028270 2.035590 -0.193380
			CHANNELS 3 Zrotation Yrotation Xrotation
			JOINT Spine1
			{
				OFFSET 0.056720 2.048850 -0.042750
				CHANNELS 3 Zrotation Yrotation Xrotation
				JOINT Neck
				{
					OFFSET 0.000000 0.000000 0.000000
					CHANNELS 3 Zrotation Yrotation Xrotation
					JOINT Neck1
					{
						OFFSET -0.054170 1.746240 0.172020
						CHANNELS 3 Zrotation Yrotation Xrotation
						JOINT Head
						{
							OFFSET 0.104070 1.761360 -0.123970
							CHANNELS 3 Zrotation Yrotation Xrotation
							End Site
							{
								OFFSET 0.000000 0.000000 0.000000
							}
						}
					}
				}
				JOINT LeftShoulder
				{
					OFFSET 0.000000 0.000000 0.000000
					CHANNELS 3 Zrotation Yrotation Xrotation
					JOINT LeftArm
					{
						OFFSET 3.362410 1.200890 -0.311210
						CHANNELS 3 Zrotation Yrotation Xrotation
						JOINT LeftForeArm
						{
							OFFSET 4.983000 -0.000000 -0.000000
							CHANNELS 3 Zrotation Yrotation Xrotation
							JOINT LeftHand
							{
								OFFSET 3.483560 -0.000000 -0.000000
								CHANNELS 3 Zrotation Yrotation Xrotation
								JOINT LeftFingerBase
								{
									OFFSET 0.000000 0.000000 0.000000
									CHANNELS 3 Zrotation Yrotation Xrotation
									JOINT LeftHandIndex1
									{
										OFFSET 0.715260 -0.000000 -0.000000
										CHANNELS 3 Zrotation Yrotation Xrotation
										End Site
										{
											OFFSET 0.000000 0.000000 0.000000
										}
									}
								}
								JOINT LThumb
								{
									OFFSET 0.000000 0.000000 0.000000
									CHANNELS 3 Zrotation Yrotation Xrotation
									End Site
									{
										OFFSET 0.000000 0.000000 0.000000
									}
								}
							}
						}
					}
				}
				JOINT RightShoulder
				{
					OFFSET 0.000000 0.000000 0.000000
					CHANNELS 3 Zrotation Yrotation Xrotation
					JOINT RightArm
					{
						OFFSET -3.136600 1.374050 -0.404650
						CHANNELS 3 Zrotation Yrotation Xrotation
						JOINT RightForeArm
						{
							OFFSET -5.241900 -0.000000 -0.000000
							CHANNELS 3 Zrotation Yrotation Xrotation
							JOINT RightHand
							{
								OFFSET -3.444170 -0.000000 -0.000000
								CHANNELS 3 Zrotation Yrotation Xrotation
								JOINT RightFingerBase
								{
									OFFSET 0.000000 0.000000 0.000000
									CHANNELS 3 Zrotation Yrotation Xrotation
									JOINT RightHandIndex1
									{
										OFFSET -0.622530 -0.000000 -0.000000
										CHANNELS 3 Zrotation Yrotation Xrotation
										End Site
										{
											OFFSET 0.000000 0.000000 0.000000
										}
									}
								}
								JOINT RThumb
								{
									OFFSET 0.000000 0.000000 0.000000
									CHANNELS 3 Zrotation Yrotation Xrotation
									End Site
									{
										OFFSET 0.000000 0.000000 0.000000
									}
								}
							}
						}
					}
				}
			}
		}
	}
}
MOTION
Frames: 9
Frame Time: 0.008333
9.181115 16.964693 -2.212216 -171.514552 65.787385 -154.106839 -8.849301 2.292473 3.611342 -25.594378 1.062881 -38.052901 -4.047091 -0.901536 14.039174 1.200992 2.750150 -12.311032 -0.316001 0.000000 -20.211200 10.418576 -5.061523 -1.642216 4.191010 -22.022555 -3.036053 1.474345 -1.677456 21.103035 0.054807 9.678640 27.515329 5.348300 0.000000 -87.876500 -4.733993 -0.121120 -2.324548 -1.516731 0.162867 -3.346481 -5.269356 0.193898 0.222716 6.546506 -10.274833 -7.039788 -2.155027 -0.168719 0.134443 0.000000 0.000000 0.000000 0.722115 14.411126 0.143213 -65.134465 9.626214 20.025889 -179.387133 -79.302511 179.982595 3.864690 1.645420 0.049663 -0.110225 0.290237 0.000000 0.000000 0.000000 0.000000 0.000000 0.000000 0.000000 3.378312 -3.689566 -0.342890 55.682490 23.836048 29.469900 179.236129 76.381116 -179.993757 0.241864 3.998156 0.009341 0.030527 -0.483841 -0.000000 0.000000 0.000000 0.000000 0.000000 0.000000 0.000000 
9.376638 16.876936 -2.301066 -170.944784 65.478734 -153.659911 -8.848560 2.288230 3.743925 -25.179156 0.236803 -38.676068 -3.874981 -0.671661 16.409859 1.382415 3.270697 -13.514274 -0.472500 0.000000 -13.946000 10.497833 -5.080753 -1.687344 3.761647 -22.453676 -3.385032 1.357121 -1.790492 23.335934 0.037423 11.592748 28.425707 6.574700 -0.000000 -88.005200 -4.907080 -0.207783 -2.406082 -1.542041 0.087798 -3.365206 -5.251748 0.116409 0.197358 7.112032 -10.262543 -7.035643 -2.115819 -0.166019 0.138504 0.000000 0.000000 0.000000 0.665269 14.273174 0.150485 -65.624972 10.175167 19.321296 -179.413993 -79.398127 179.982111 3.981727 1.533485 0.046948 -0.106677 0.292710 0.000000 0.000000 0.000000 0.000000 0.000000 0.000000 0.000000 3.728558 -3.681097 -0.240969 54.796027 24.609316 28.893417 179.175927 75.761300 -179.992376 0.398257 4.269234 0.016425 0.028493 -0.498859 -0.000000 0.000000 0.000000 0.000000 0.000000 0.000000 0.000000 
9.566717 16.789759 -2.391080 -170.436399 65.196369 -153.298328 -8.863406 2.275821 3.842639 -24.713049 -0.582301 -39.389435 -3.674573 -0.382612 19.356162 1.571384 3.771458 -14.913542 -0.672900 -0.000000 -7.637600 10.584778 -5.067788 -1.752409 3.263340 -22.933120 -3.861252 1.217049 -1.898508 25.773460 -0.018660 13.224124 29.420603 7.711500 -0.000000 -87.908600 -5.049838 -0.303528 -2.438721 -1.560268 0.002405 -3.374602 -5.234280 0.028869 0.167476 7.642979 -10.199318 -7.013525 -2.075674 -0.163328 0.145968 0.000000 0.000000 0.000000 0.499594 14.159766 0.172707 -66.091430 10.553099 18.622431 -179.445635 -79.643874 179.981035 4.197895 1.477332 0.047151 -0.106413 0.293955 0.000000 0.000000 0.000000 0.000000 0.000000 0.000000 0.000000 4.033102 -3.634156 -0.156870 54.027685 25.339248 28.265266 179.126161 75.287852 -179.990799 0.592005 4.543866 0.026096 0.024431 -0.513024 -0.000000 0.000000 0.000000 0.000000 0.000000 0.000000 0.000000 
9.750919 16.705152 -2.482651 -169.980832 64.945709 -153.026366 -8.899337 2.251791 3.896741 -24.236251 -1.316186 -40.104680 -3.457135 -0.062300 22.647244 1.749988 4.223388 -16.387823 -0.901400 -0.000000 -1.912800 10.673779 -5.021867 -1.838622 2.704273 -23.440463 -4.434313 1.056957 -2.000684 28.368911 -0.112679 14.408410 30.498409 8.658000 -0.000000 -87.602000 -5.151515 -0.399201 -2.410107 -1.569941 -0.084805 -3.372580 -5.217421 -0.060005 0.132542 8.123780 -10.092159 -6.971668 -2.032433 -0.160516 0.157345 0.000000 0.000000 0.000000 0.224173 14.075431 0.208275 -66.529601 10.727077 17.958687 -179.483529 -80.070960 179.979209 4.544009 1.491445 0.051374 -0.110119 0.293659 0.000000 0.000000 0.000000 0.000000 0.000000 0.000000 0.000000 4.264368 -3.553184 -0.097037 53.419939 25.993693 27.601250 179.089763 74.966455 -179.989112 0.816554 4.799681 0.038049 0.018380 -0.525509 -0.000000 0.000000 0.000000 0.000000 0.000000 0.000000 0.000000 
9.929262 16.625437 -2.576034 -169.594079 64.730626 -152.860369 -8.953509 2.216136 3.906322 -23.791351 -1.927023 -40.714328 -3.237114 0.255670 26.008149 1.909793 4.629571 -17.843743 178.856300 -0.000000 -2.800300 10.763013 -4.941002 -1.945272 2.086075 -23.947681 -5.089004 0.881681 -2.097665 31.084126 -0.241059 15.001373 31.622422 9.302700 -0.000001 -86.955100 -5.217056 -0.487766 -2.319303 -1.573079 -0.166530 -3.359377 -5.203797 -0.142802 0.092190 8.548822 -9.952069 -6.909537 -1.985854 -0.157600 0.172904 0.000000 0.000000 0.000000 -0.152353 14.016033 0.254118 -66.932378 10.679357 17.356379 -179.528842 -80.698627 179.976506 5.045721 1.586681 0.061116 -0.118154 0.291568 0.000000 0.000000 0.000000 0.000000 0.000000 0.000000 0.000000 4.415506 -3.446985 -0.064359 53.005013 26.543128 26.921445 179.068355 74.799051 -179.987427 1.059151 5.013540 0.051691 0.010781 -0.535552 -0.000000 0.000000 0.000000 0.000000 0.000000 0.000000 0.000000 
10.102356 16.553154 -2.671127 -169.312700 64.553837 -152.822531 -9.015473 2.173603 3.878402 -23.422410 -2.404215 -41.128650 -3.031866 0.541838 29.183221 2.050987 5.001900 -19.239697 178.607900 -0.000000 -6.366800 10.853371 -4.823760 -2.066287 1.415468 -24.417157 -5.825133 0.697707 -2.190578 33.876456 -0.399907 14.888058 32.736013 9.534200 -0.000000 -85.909400 -5.261937 -0.564961 -2.178402 -1.573840 -0.237687 -3.337531 -5.197180 -0.214462 0.047384 8.921999 -9.791961 -6.828222 -1.937259 -0.154704 0.192578 0.000000 0.000000 0.000000 -0.612074 13.974114 0.306310 -67.293089 10.405650 16.839485 -179.582153 -81.533717 179.972849 5.719172 1.769894 0.078472 -0.130488 0.287529 0.000000 0.000000 0.000000 0.000000 0.000000 0.000000 0.000000 4.497603 -3.327128 -0.059170 52.802844 26.964077 26.246893 179.061964 74.777541 -179.985875 1.300678 5.165756 0.065627 0.002404 -0.542642 -0.000000 0.000000 0.000000 0.000000 0.000000 0.000000 0.000000 
10.270915 16.490672 -2.768201 -169.156918 64.412598 -152.913093 -9.073167 2.130664 3.822424 -23.164589 -2.752096 -41.290762 -2.856613 0.776125 31.973034 2.179274 5.352614 -20.572318 178.354000 -0.000001 -8.857100 10.945260 -4.671148 -2.191012 0.710544 -24.804721 -6.654142 0.513090 -2.281677 36.705385 -0.584768 14.006806 33.749221 9.262200 -0.000000 -84.311400 -5.301370 -0.628298 -2.007358 -1.576359 -0.295100 -3.311032 -5.202037 -0.271900 -0.000706 9.252472 -9.624948 -6.729718 -1.889133 -0.152037 0.216128 0.000000 0.000000 0.000000 -1.133611 13.937914 0.360349 -67.607293 9.918237 16.424929 -179.643215 -82.566856 179.968233 6.567734 2.043372 0.106138 -0.146659 0.281516 0.000000 0.000000 0.000000 0.000000 0.000000 0.000000 0.000000 4.533482 -3.205851 -0.079203 52.816430 27.239432 25.597462 179.069651 74.890262 -179.984601 1.517413 5.242100 0.077865 -0.005786 -0.546509 -0.000000 0.000000 0.000000 0.000000 0.000000 0.000000 0.000000 
10.435846 16.439945 -2.867528 -169.126492 64.303827 -153.108507 -9.118229 2.092354 3.748091 -23.026961 -2.980979 -41.184163 -2.720942 0.948817 34.250215 2.301587 5.689906 -21.851910 178.092799 -0.000000 -10.419100 11.035877 -4.487953 -2.304386 0.012502 -25.057178 -7.591772 0.335193 -2.373643 39.523932 -0.790931 12.360176 34.556851 8.442300 -0.000000 -82.179800 -5.338112 -0.675412 -1.832093 -1.581920 -0.336632 -3.284615 -5.221202 -0.313135 -0.049554 9.550106 -9.462038 -6.617417 -1.844071 -0.149795 0.243050 0.000000 0.000000 0.000000 -1.695643 13.900565 0.411789 -67.877768 9.239104 16.126701 -179.710862 -83.776030 179.962740 7.579544 2.404271 0.147106 -0.165849 0.273662 0.000000 0.000000 0.000000 0.000000 0.000000 0.000000 0.000000 4.547406 -3.093007 -0.121476 53.033028 27.359628 24.989485 179.089846 75.119777 -179.983753 1.683346 5.237230 0.086412 -0.012812 -0.547190 -0.000000 0.000000 0.000000 0.000000 0.000000 0.000000 0.000000 
10.597699 16.402264 -2.969892 -169.187986 64.223150 -153.358594 -9.148178 2.060392 3.663516 -22.994676 -3.103463 -40.815830 -2.627671 1.057064 35.945205 2.423130 6.019257 -23.079958 177.823500 0.000000 -11.205200 11.119713 -4.282508 -2.391653 -0.629296 -25.123465 -8.649824 0.169313 -2.469740 42.287031 -1.011903 10.040733 35.043635 7.107200 0.000001 -79.515500 -5.363657 -0.704014 -1.676297 -1.589286 -0.360936 -3.262763 -5.256108 -0.336992 -0.097952 9.822617 -9.310239 -6.493916 -1.804574 -0.148173 0.273079 0.000000 0.000000 0.000000 -2.280283 13.852892 0.456625 -68.114603 8.406002 15.947601 -179.783021 -85.122263 179.956551 8.726363 2.844693 0.204067 -0.186911 0.264246 0.000000 0.000000 0.000000 0.000000 0.000000 0.000000 0.000000 4.560263 -2.993923 -0.181883 53.425507 27.322341 24.434463 179.120697 75.446711 -179.983463 1.774218 5.154347 0.089973 -0.017837 -0.544982 -0.000000 0.000000 0.000000 0.000000 0.000000 0.000000 0.000000 
